# xmcd
# 
# Track frame offsets:
#     150
#     21029
#     34518
#     53772
#     72398
#     93476
#     110765
#     128645
#     148764
#     163832
#     180818
#     200218
#     213990
#     228923
#     242704
#     255807
#     270174
#     286242
#     301002
#     313524
#     327823
# 
# Disc length: 4610
# 
# Revision: 3
# Processed by: cddbd v1.5.2PL0 Copyright (c) Steve Scherf et al.
# Submitted via: BonkEnc v1.0.6
# 
DISCID=1a120015
DTITLE=Dolly Parton - The Collection
DYEAR=2004
DGENRE=Country
TTITLE0=Just When I Needed You Most
TTITLE1=Behind Closed Doors
TTITLE2=For The Good Times
TTITLE3=Before The Next Teardrop Falls
TTITLE4=Peace Train/Isitimela Sokuthula
TTITLE5=The Salt In My Tears
TTITLE6=Today I Started Loving You Again
TTITLE7=Honky Tonk Songs
TTITLE8=Satin Sheets
TTITLE9=After The Goldrush
TTITLE10=Blue Valley Songbird
TTITLE11=Don't Let Me Cross Over
TTITLE12=Hungry Again
TTITLE13=I Wanna Go Back There
TTITLE14=Time And Tears
TTITLE15=I'll Never Say Goodbye
TTITLE16=I Still Lost You
TTITLE17=The Camel's Heart
TTITLE18=When Jesus Comes Calling For Me
TTITLE19=Paradise Road
TTITLE20=Shine On
EXTD=YEAR: 2004
EXTT0=
EXTT1=
EXTT2=
EXTT3=
EXTT4=
EXTT5=
EXTT6=
EXTT7=
EXTT8=
EXTT9=
EXTT10=
EXTT11=
EXTT12=
EXTT13=
EXTT14=
EXTT15=
EXTT16=
EXTT17=
EXTT18=
EXTT19=
EXTT20=
PLAYORDER=
